<svg width="105" height="94" viewBox="0 0 105 94" fill="none" xmlns="http://www.w3.org/2000/svg">
<rect x="10" y="41" width="85" height="13" rx="6.5" fill="#EBECFA"/>
<path d="M42.0033 47.653L35.846 37.865C35.846 37.865 24.4281 49.5629 25.0259 50.6969C25.6835 51.8309 42.0033 47.653 42.0033 47.653Z" fill="url(#paint0_linear_18_20947)"/>
<path opacity="0.2" d="M73.8061 77.4348L35.1885 54.3971C35.1885 54.3971 34.8896 54.218 34.7103 54.1583C30.8246 52.0694 25.8031 50.3983 25.8031 50.3983C25.2053 50.2192 24.9064 50.3386 25.026 51.1145C25.2053 51.8307 25.5042 52.3082 26.3411 53.084C26.3411 53.084 32.08 57.799 35.7265 60.246C35.9059 60.4251 36.145 60.6041 36.3243 60.7235C36.3243 60.7235 36.3243 60.7235 36.3841 60.7235L75.181 84L73.8061 77.4348Z" fill="url(#paint1_radial_18_20947)"/>
<path opacity="0.3" d="M47.1443 62.8722L29.8083 52.547C29.8083 52.547 29.6887 52.4873 29.629 52.4276C27.8954 51.4727 25.6237 50.7565 25.6237 50.7565C25.3248 50.6371 25.5042 51.592 25.8628 51.9501C25.8628 51.9501 28.4334 54.0988 30.1072 55.1731C30.2267 55.2327 30.2865 55.2924 30.4061 55.3521L47.8019 65.7967L47.1443 62.8722Z" fill="url(#paint2_radial_18_20947)"/>
<path d="M81.2785 17.0355C81.7568 17.9308 76.4961 21.6312 69.5019 25.3315C62.5077 28.9722 56.47 31.2402 55.9918 30.3449C55.5135 29.4497 60.7741 25.7493 67.7683 22.0489C74.7028 18.3486 80.8003 16.1403 81.2785 17.0355Z" fill="url(#paint3_radial_18_20947)"/>
<path d="M75.3006 16.6777L36.8026 37.2087C36.145 37.5668 35.607 38.104 35.1885 38.7008L34.1723 40.3122C33.8136 40.9091 34.2321 41.685 34.9494 41.685H37.4602L77.2135 20.3184L75.3006 16.6777Z" fill="url(#paint4_linear_18_20947)"/>
<path d="M77.2135 20.4373L37.4601 41.8039L36.5634 43.7137C36.3243 44.2509 36.6232 44.9074 37.221 44.9671L39.6719 45.3252L78.4688 24.5554L77.2135 20.4373Z" fill="url(#paint5_linear_18_20947)"/>
<path d="M78.4689 24.5553L80.5612 27.1217L42.4218 47.5334C41.824 47.8318 41.1067 47.8915 40.5089 47.5931L39.5524 47.1156C39.0742 46.9962 38.8948 46.4591 39.134 46.0413L39.6122 45.3251L78.4689 24.5553Z" fill="url(#paint6_linear_18_20947)"/>
<path d="M88.5716 23.0039L82.8926 12.4399L75.3604 16.4387C75.3604 16.4387 75.3604 16.4387 75.3006 16.4387C73.6268 17.334 73.5072 20.4375 75.0615 23.362C76.6157 26.2865 79.3058 27.8979 80.9796 27.0027C80.9796 27.0027 80.9796 27.0027 81.0394 27.0027L88.5716 23.0039Z" fill="url(#paint7_linear_18_20947)"/>
<path d="M88.5716 23.0038C86.8978 23.8991 84.2077 22.2876 82.6534 19.3631C81.0992 16.4387 81.1589 13.3351 82.8926 12.4399C84.5664 11.5446 87.2565 13.1561 88.8108 16.0806C90.365 19.005 90.2455 22.1086 88.5716 23.0038Z" fill="url(#paint8_linear_18_20947)"/>
<path d="M82.8926 19.363C81.3383 16.4385 81.3981 13.335 83.1317 12.4398C83.1915 12.4398 83.1915 12.3801 83.2512 12.3801C83.0719 12.4397 82.8926 12.4994 82.7132 12.5591C81.0394 13.4544 80.9199 16.5579 82.4741 19.4824C84.0284 22.3472 86.5989 23.9586 88.2727 23.1828C86.5391 23.5409 84.2675 21.9891 82.8926 19.363Z" fill="url(#paint9_radial_18_20947)"/>
<path d="M93.2344 20.1389L87.914 10.2911L83.3708 12.7382C83.3708 12.7382 83.3708 12.7382 83.311 12.7382C81.697 13.5737 81.6372 16.4982 83.0719 19.2436C84.5664 21.9891 87.0173 23.4811 88.6314 22.6456C88.6314 22.6456 88.6314 22.6456 88.6912 22.6456L93.2344 20.1389Z" fill="url(#paint10_linear_18_20947)"/>
<path d="M93.2344 20.139C91.6204 20.9746 89.1694 19.4825 87.6749 16.7371C86.1805 13.9916 86.3 11.1268 87.9141 10.2316C89.5281 9.39603 91.9791 10.8881 93.4735 13.6335C94.9082 16.379 94.7887 19.3034 93.2344 20.139Z" fill="url(#paint11_linear_18_20947)"/>
<path d="M87.9141 16.618C86.599 14.1113 86.5392 11.4852 87.7348 10.4109C87.675 10.4109 87.675 10.4109 87.6152 10.4706C86.0012 11.3061 85.9414 14.2306 87.3761 16.9761C88.8706 19.7215 91.3215 21.2136 92.9356 20.378C93.0551 20.3183 93.1747 20.199 93.2943 20.0796C91.74 20.7958 89.3488 19.3037 87.9141 16.618Z" fill="url(#paint12_radial_18_20947)"/>
<path d="M27.5366 46.9365C27.8355 48.2496 28.4333 49.5029 29.2702 50.5175C26.9986 50.8756 25.265 51.0547 25.0856 50.6966C24.8465 50.3385 25.9226 48.7867 27.5366 46.9365Z" fill="url(#paint13_radial_18_20947)"/>
<defs>
<linearGradient id="paint0_linear_18_20947" x1="29.3596" y1="41.4368" x2="34.7377" y2="51.4326" gradientUnits="userSpaceOnUse">
<stop offset="0.0353535" stop-color="#F7D9CF"/>
<stop offset="0.4596" stop-color="#FFE1C2"/>
<stop offset="0.8737" stop-color="#F7CFC1"/>
</linearGradient>
<radialGradient id="paint1_radial_18_20947" cx="0" cy="0" r="1" gradientUnits="userSpaceOnUse" gradientTransform="translate(27.2004 49.0495) rotate(42.5021) scale(20.6068 7.87901)">
<stop/>
<stop offset="1" stop-color="white"/>
</radialGradient>
<radialGradient id="paint2_radial_18_20947" cx="0" cy="0" r="1" gradientUnits="userSpaceOnUse" gradientTransform="translate(26.3575 50.2468) rotate(42.5022) scale(9.18589 3.51223)">
<stop/>
<stop offset="1" stop-color="white"/>
</radialGradient>
<radialGradient id="paint3_radial_18_20947" cx="0" cy="0" r="1" gradientUnits="userSpaceOnUse" gradientTransform="translate(68.592 23.6607) rotate(-27.6671) scale(14.2977 1.85852)">
<stop stop-color="white"/>
<stop offset="0.1313" stop-color="#FF63CE"/>
<stop offset="1"/>
</radialGradient>
<linearGradient id="paint4_linear_18_20947" x1="51.7397" y1="23.2468" x2="55.5659" y2="30.6127" gradientUnits="userSpaceOnUse">
<stop offset="0.0353535" stop-color="#FFA98C"/>
<stop offset="0.3169" stop-color="#FFB892"/>
<stop offset="0.8601" stop-color="#FEE1A3"/>
<stop offset="1" stop-color="#FEECA8"/>
</linearGradient>
<linearGradient id="paint5_linear_18_20947" x1="54.2944" y1="27.7579" x2="60.2079" y2="38.6086" gradientUnits="userSpaceOnUse">
<stop offset="0.0353535" stop-color="#FFA98C"/>
<stop offset="0.3169" stop-color="#FFB892"/>
<stop offset="0.8601" stop-color="#FEE1A3"/>
<stop offset="1" stop-color="#FEECA8"/>
</linearGradient>
<linearGradient id="paint6_linear_18_20947" x1="60.456" y1="37.94" x2="54.9288" y2="27.9" gradientUnits="userSpaceOnUse">
<stop offset="0.0353535" stop-color="#FFA98C"/>
<stop offset="0.3169" stop-color="#FFB892"/>
<stop offset="0.8601" stop-color="#FEE1A3"/>
<stop offset="1" stop-color="#FEECA8"/>
</linearGradient>
<linearGradient id="paint7_linear_18_20947" x1="77.5935" y1="15.3464" x2="83.1969" y2="25.7609" gradientUnits="userSpaceOnUse">
<stop stop-color="#BEC5D8"/>
<stop offset="0.2121" stop-color="#EBEDF3"/>
<stop offset="0.2401" stop-color="#E2E4EC"/>
<stop offset="0.4982" stop-color="#9097B3"/>
<stop offset="0.6162" stop-color="#70789C"/>
<stop offset="0.6814" stop-color="#767EA3"/>
<stop offset="0.7737" stop-color="#888EB5"/>
<stop offset="0.8232" stop-color="#949AC2"/>
<stop offset="1" stop-color="#8B90B5"/>
</linearGradient>
<linearGradient id="paint8_linear_18_20947" x1="86.5107" y1="6.02429" x2="85.0254" y2="27.8957" gradientUnits="userSpaceOnUse">
<stop stop-color="#D6DAE6"/>
<stop offset="0.0147448" stop-color="#D4D8E6"/>
<stop offset="0.2778" stop-color="#B4B8E3"/>
<stop offset="0.3952" stop-color="#9A9FC8"/>
<stop offset="0.5296" stop-color="#838AB0"/>
<stop offset="0.6539" stop-color="#757DA1"/>
<stop offset="0.7576" stop-color="#70789C"/>
<stop offset="0.8533" stop-color="#777EA2"/>
<stop offset="0.9888" stop-color="#898EB3"/>
<stop offset="1" stop-color="#8B90B5"/>
</linearGradient>
<radialGradient id="paint9_radial_18_20947" cx="0" cy="0" r="1" gradientUnits="userSpaceOnUse" gradientTransform="translate(82.3717 16.6885) scale(4.6044 4.59699)">
<stop stop-color="#B4299A"/>
<stop offset="0.1186" stop-color="#8A2076"/>
<stop offset="0.259" stop-color="#601652"/>
<stop offset="0.4024" stop-color="#3E0E35"/>
<stop offset="0.5471" stop-color="#23081E"/>
<stop offset="0.6936" stop-color="#0F030D"/>
<stop offset="0.8431" stop-color="#040103"/>
<stop offset="1"/>
</radialGradient>
<linearGradient id="paint10_linear_18_20947" x1="84.217" y1="12.2979" x2="89.4491" y2="22.0224" gradientUnits="userSpaceOnUse">
<stop offset="0.00505051" stop-color="#ED5EB6"/>
<stop offset="0.1298" stop-color="#F783C5"/>
<stop offset="0.2525" stop-color="#FFA3D2"/>
<stop offset="0.6162" stop-color="#DC5199"/>
<stop offset="0.7179" stop-color="#DF589E"/>
<stop offset="0.8131" stop-color="#E463A6"/>
<stop offset="1" stop-color="#DC3D8F"/>
</linearGradient>
<linearGradient id="paint11_linear_18_20947" x1="84.859" y1="13.8108" x2="97.0617" y2="16.804" gradientUnits="userSpaceOnUse">
<stop offset="0.0555556" stop-color="#FFA3D2"/>
<stop offset="0.8131" stop-color="#E463A6"/>
<stop offset="1" stop-color="#DC3D8F"/>
</linearGradient>
<radialGradient id="paint12_radial_18_20947" cx="0" cy="0" r="1" gradientUnits="userSpaceOnUse" gradientTransform="translate(87.3044 14.9226) scale(4.35518 4.34817)">
<stop stop-color="#B4299A"/>
<stop offset="0.1186" stop-color="#8A2076"/>
<stop offset="0.259" stop-color="#601652"/>
<stop offset="0.4024" stop-color="#3E0E35"/>
<stop offset="0.5471" stop-color="#23081E"/>
<stop offset="0.6936" stop-color="#0F030D"/>
<stop offset="0.8431" stop-color="#040103"/>
<stop offset="1"/>
</radialGradient>
<radialGradient id="paint13_radial_18_20947" cx="0" cy="0" r="1" gradientUnits="userSpaceOnUse" gradientTransform="translate(27.2828 45.118) rotate(180) scale(5.98148 5.97188)">
<stop offset="0.0959596" stop-color="#8493BA"/>
<stop offset="0.2117" stop-color="#606C90"/>
<stop offset="0.3258" stop-color="#444D6E"/>
<stop offset="0.4337" stop-color="#303756"/>
<stop offset="0.5332" stop-color="#232A47"/>
<stop offset="0.6162" stop-color="#1F2542"/>
<stop offset="0.7061" stop-color="#242A49"/>
<stop offset="0.8335" stop-color="#34395B"/>
<stop offset="0.9827" stop-color="#4D5179"/>
<stop offset="0.9848" stop-color="#4D517A"/>
</radialGradient>
</defs>
</svg>
