<svg width="599" height="692" viewBox="0 0 599 692" fill="none" xmlns="http://www.w3.org/2000/svg">
<g opacity="0.2">
<path opacity="0.090909" d="M200.829 319.901C211.066 313.654 223.917 310.184 236.987 310.415C242.214 310.415 247.224 311.109 251.798 312.266C256.808 313.423 262.471 315.968 266.61 318.513L580.922 511.232C591.813 517.941 597.476 528.352 596.822 539.92C596.605 543.159 595.951 546.167 594.862 549.174C592.03 557.272 584.407 566.063 575.476 571.385L398.826 679.659C396.647 681.047 393.598 682.667 391.202 683.592C382.707 687.294 373.123 689.376 363.321 689.376C352.212 689.376 341.975 686.831 333.916 681.973L18.0792 488.328C7.18826 481.619 1.52496 471.208 2.39623 459.64C2.61405 456.863 3.04972 454.319 3.92099 451.774C6.53481 443.213 14.5941 433.959 23.7425 428.175L200.829 319.901Z" fill="white"/>
<path opacity="0.1818" d="M201.482 321.29C211.719 315.043 224.788 311.804 237.422 312.035C242.65 312.267 247.442 312.961 252.016 314.118C256.372 315.274 263.125 318.282 266.61 320.596L580.05 512.852C590.723 519.561 595.951 529.973 594.644 541.078C594.208 544.085 593.337 547.093 592.248 549.869C589.634 557.041 580.704 566.295 572.644 571.154L398.607 677.809C396.647 678.966 393.38 680.816 390.984 681.742C382.707 685.444 373.123 687.526 363.539 687.757C352.43 687.989 342.41 685.444 334.569 680.585L18.7324 486.94C7.84148 480.231 2.83165 469.82 4.35637 458.715C4.79201 456.17 5.44552 453.625 6.31679 451.08C8.93061 443.445 18.079 433.497 26.5739 428.407L201.482 321.29Z" fill="white"/>
<path opacity="0.2727" d="M202.353 322.677C212.59 316.43 225.659 313.191 238.293 313.654C243.521 313.885 248.313 314.811 252.887 316.199C256.807 317.355 264.213 320.826 267.263 322.677L579.396 514.239C590.069 520.717 594.644 531.128 592.683 542.002C592.248 544.778 590.941 547.554 589.851 550.331C587.238 556.809 577 566.526 570.03 570.921L398.389 676.188C396.647 677.345 392.944 679.196 390.983 680.121C382.706 683.823 373.34 686.136 363.974 686.136C353.083 686.368 343.063 684.054 335.44 679.196L19.6034 485.551C8.71247 478.842 4.35611 468.431 6.53429 457.557C6.96993 455.012 8.05903 452.699 8.93031 450.385C11.3263 443.676 21.9994 433.265 29.4052 428.638L202.353 322.677Z" fill="white"/>
<path opacity="0.3636" d="M203.224 324.064C213.462 317.817 226.531 314.809 238.947 315.272C244.174 315.503 248.966 316.66 253.323 318.048C256.808 318.974 264.867 323.138 267.699 324.758L578.525 515.395C589.198 521.873 593.119 532.284 590.505 542.926C589.852 545.702 588.545 548.247 587.238 550.792C584.842 556.345 573.298 566.524 567.199 570.457L398.172 674.105C396.647 675.03 392.508 677.344 390.984 678.038C382.924 681.74 373.776 684.053 364.41 684.284C353.737 684.516 343.717 682.202 336.311 677.575L20.475 483.93C9.80188 477.221 5.8811 466.81 8.71273 456.168C9.36619 453.854 10.4553 451.772 11.5444 449.227C13.9404 443.443 25.9204 432.338 32.455 428.405L203.224 324.064Z" fill="white"/>
<path opacity="0.4545" d="M203.878 325.685C214.115 319.439 227.184 316.431 239.6 317.356C244.828 317.588 249.62 318.976 253.976 320.364C256.808 321.289 265.738 325.917 268.134 327.305L577.872 517.248C588.545 523.726 591.812 534.137 588.545 544.316C587.673 546.861 586.149 549.175 584.842 551.951C582.664 556.578 569.812 567.452 564.585 570.691L397.954 672.487C396.647 673.413 392.291 675.726 390.766 676.42C382.924 680.122 373.776 682.436 364.628 682.898C354.172 683.13 344.371 681.048 336.747 676.42L20.9104 482.776C10.2373 476.298 6.9701 465.655 10.673 455.476C11.5443 453.162 12.8512 451.311 13.7225 448.998C15.9006 444.139 29.4053 432.571 35.0686 429.101L203.878 325.685Z" fill="white"/>
<path opacity="0.5455" d="M204.749 327.073C214.769 320.827 228.056 318.05 240.254 318.976C245.481 319.439 250.056 320.827 254.412 322.215C256.808 322.909 266.392 328.23 268.352 329.387L576.783 518.636C587.456 525.114 590.288 535.293 586.149 545.473C585.06 547.787 583.753 550.332 582.011 552.645C580.704 556.81 565.892 567.683 561.536 570.459L397.519 670.868C396.429 671.562 391.638 674.338 390.548 674.801C382.925 678.503 373.994 681.048 364.846 681.279C354.608 681.742 344.807 679.659 337.401 675.032L21.5643 481.388C10.8912 474.91 8.05954 464.499 12.6337 454.319C13.505 452.237 14.5941 450.155 16.1188 448.072C17.2079 443.677 33.1086 431.877 37.6828 429.101L204.749 327.073Z" fill="white"/>
<path opacity="0.6364" d="M205.62 328.46C215.64 322.213 228.927 319.437 241.125 320.594C246.352 321.056 250.927 322.676 255.283 324.064C257.243 324.758 267.481 330.31 269.005 331.467L576.347 520.022C586.802 526.5 589.416 536.68 584.406 546.397C583.317 548.71 581.792 551.024 579.832 553.106C578.743 556.345 562.624 567.913 559.139 569.995L397.736 669.015C396.865 669.478 391.855 672.486 390.766 672.948C383.142 676.65 374.429 679.195 365.499 679.658C355.479 680.12 345.677 678.038 338.489 673.642L22.6531 479.998C11.98 473.52 9.58405 463.109 15.0295 453.16C16.1186 451.31 17.4255 449.227 18.9502 447.376C19.8215 443.906 37.2469 431.644 40.9498 429.331L205.62 328.46Z" fill="white"/>
<path opacity="0.7273" d="M206.274 330.081C216.294 323.834 229.798 321.289 241.56 322.446C246.788 322.909 251.362 324.759 255.501 326.148C257.026 326.61 267.916 332.857 269.223 333.782L575.258 521.412C585.713 527.89 587.674 538.069 582.01 547.324C580.703 549.406 579.179 551.488 577.001 553.57C576.347 556.115 558.704 567.914 556.09 569.534L397.301 666.935C396.647 667.397 391.202 670.405 390.548 670.868C383.142 674.569 374.647 677.114 365.935 677.577C355.915 678.04 346.331 676.189 339.361 671.793L23.5244 478.148C12.8513 471.67 11.1087 461.259 17.2077 451.774C18.5146 449.923 19.8215 448.072 21.564 446.453C22.2175 443.908 41.1676 431.183 43.7814 429.332L206.274 330.081Z" fill="white"/>
<path opacity="0.8182" d="M207.145 331.469C217.165 325.222 230.67 322.677 242.432 324.065C247.442 324.759 252.016 326.61 256.154 328.23C257.026 328.692 268.788 335.402 269.659 335.864L574.604 522.8C585.06 529.278 586.584 539.226 580.05 548.48C578.525 550.563 576.783 552.413 574.604 554.264C574.169 555.884 555.219 568.146 553.476 569.302L397.083 665.084C396.647 665.315 390.984 668.785 390.548 669.017C383.36 672.718 374.865 675.495 366.37 675.957C356.569 676.42 347.202 674.801 340.232 670.405L24.3959 476.76C13.7228 470.282 12.4159 459.871 19.6039 450.617C20.9108 448.997 22.4355 447.147 24.3959 445.527C24.8315 443.676 45.0886 430.489 47.049 429.332L207.145 331.469Z" fill="white"/>
<path opacity="0.9091" d="M207.798 332.857C217.818 326.61 231.322 324.297 242.867 325.916C247.877 326.61 252.451 328.693 256.589 330.312C257.025 330.543 269.658 337.947 269.876 338.178L573.515 524.42C583.97 530.666 585.059 540.846 577.653 549.637C576.129 551.488 574.168 553.339 571.772 554.959C571.554 555.884 551.297 568.609 550.426 569.071L396.646 663.464C396.429 663.696 390.33 667.166 390.112 667.397C382.924 671.099 374.647 673.875 366.37 674.338C356.786 675.032 347.42 673.181 340.667 669.017L24.8308 475.372C14.1578 468.894 13.2865 458.252 21.3457 449.46C22.8705 447.841 24.613 446.221 26.5734 444.833C26.7912 443.908 48.573 430.258 49.6621 429.564L207.798 332.857Z" fill="white"/>
<path opacity="0.2" d="M341.757 667.63L25.9207 473.985C13.5051 466.35 15.0298 452.931 29.4058 444.14L208.67 334.246C223.046 325.454 244.828 324.529 257.244 332.164L573.08 525.808C585.496 533.443 583.971 546.862 569.595 555.653L390.331 665.547C375.955 674.339 354.173 675.264 341.757 667.63Z" fill="white"/>
</g>
<path d="M341.757 667.397L25.9205 473.753C20.2572 470.282 17.6434 465.886 17.4255 461.028C17.4255 460.797 17.4255 444.602 17.4255 444.37C17.4255 438.586 21.5641 448.535 29.4055 443.908L208.67 334.014C223.046 325.222 244.828 324.297 257.243 331.931L573.08 525.576C577.218 528.121 580.268 517.247 581.357 520.718C581.793 521.874 581.575 537.144 581.575 538.301C581.793 544.316 577.654 550.563 569.595 555.421L390.33 665.315C375.954 674.107 354.173 675.032 341.757 667.397Z" fill="url(#paint0_linear_4_14151)"/>
<path d="M341.757 650.97L25.9207 457.326C13.5051 449.691 15.0298 436.272 29.4058 427.481L208.67 317.587C223.046 308.795 244.828 307.87 257.244 315.505L573.08 509.149C585.496 516.784 583.971 530.203 569.595 538.994L390.331 648.888C375.955 657.68 354.173 658.605 341.757 650.97Z" fill="url(#paint1_linear_4_14151)"/>
<path d="M362.886 649.581C355.698 649.581 349.381 647.962 344.807 645.417L28.9703 451.772C27.0099 450.616 23.7427 448.071 23.7427 444.6C23.7427 441.13 27.0099 436.966 32.4554 433.495L211.72 323.601C218.254 319.437 227.185 317.123 236.115 317.123C243.303 317.123 249.62 318.743 254.194 321.288L570.031 514.932C571.991 516.089 575.258 518.634 575.258 522.104C575.258 525.575 571.991 529.739 566.546 533.21L387.281 643.104C380.529 647.268 371.816 649.581 362.886 649.581Z" fill="url(#paint2_linear_4_14151)"/>
<path d="M569.595 536.218L390.33 646.112C375.954 654.904 354.173 655.829 341.757 648.195L25.9206 454.55C20.693 451.311 18.0791 447.146 17.6435 442.751C16.99 448.072 19.8217 453.393 25.9206 457.326L341.757 650.971C354.173 658.606 375.954 657.68 390.33 648.889L569.595 538.995C578.09 533.905 582.011 527.195 581.357 520.949C580.704 526.27 576.783 531.823 569.595 536.218Z" fill="white"/>
<path d="M276.194 360.156C284.471 386.068 257.897 419.151 216.729 434.19C175.562 449.228 135.483 440.436 126.988 414.756C118.711 388.844 145.285 355.76 186.452 340.722C227.62 325.684 267.699 334.244 276.194 360.156Z" fill="url(#paint3_radial_4_14151)"/>
<path d="M397.954 579.712L141.582 422.39C136.354 419.151 137.008 413.83 143.107 410.128L239.382 351.133C245.263 347.431 254.194 347.2 259.421 350.207L515.793 507.529C521.021 510.768 520.368 516.089 514.269 519.791L417.993 578.787C411.894 582.488 402.964 582.951 397.954 579.712Z" fill="url(#paint4_linear_4_14151)"/>
<path opacity="0.3" d="M244.828 362.7L261.164 372.88C263.342 374.268 266.609 374.268 268.788 372.88C270.966 371.491 270.748 369.641 268.788 368.252L252.451 358.073C250.273 356.685 247.006 356.685 244.828 358.073C242.649 359.23 242.649 361.312 244.828 362.7ZM272.926 379.82L280.768 384.679C282.946 386.067 286.213 386.067 288.391 384.679C290.569 383.291 290.352 381.44 288.391 380.052L280.332 375.425C278.154 374.036 274.886 374.036 272.708 375.425C270.53 376.813 270.748 378.663 272.926 379.82ZM292.312 391.851L300.153 396.709C302.331 398.097 305.599 398.097 307.777 396.709C309.955 395.321 309.737 393.47 307.777 392.082L299.935 387.224C297.757 385.836 294.49 385.836 292.312 387.224C290.351 388.612 290.351 390.694 292.312 391.851ZM311.915 403.881L319.757 408.74C321.935 410.128 325.202 410.128 327.381 408.74C329.559 407.352 329.341 405.501 327.381 404.113L319.539 399.254C317.361 397.866 314.094 397.866 311.915 399.254C309.737 400.411 309.737 402.493 311.915 403.881ZM331.301 415.68L339.143 420.539C341.321 421.927 344.588 421.927 346.766 420.539C348.945 419.151 348.727 417.3 346.766 415.912L338.925 411.053C336.747 409.665 333.479 409.665 331.301 411.053C329.341 412.441 329.341 414.524 331.301 415.68ZM350.905 427.711L358.746 432.569C360.925 433.958 364.192 433.958 366.37 432.569C368.548 431.181 368.33 429.33 366.37 427.942L358.529 423.084C356.35 421.696 353.083 421.696 350.905 423.084C348.727 424.472 348.727 426.554 350.905 427.711ZM370.291 439.741L378.132 444.6C380.31 445.988 383.578 445.988 385.756 444.6C387.934 443.212 387.716 441.361 385.756 439.973L377.914 435.114C375.736 433.726 372.469 433.726 370.291 435.114C368.33 436.271 368.33 438.353 370.291 439.741ZM389.894 451.541L397.736 456.399C399.914 457.787 403.181 457.787 405.359 456.399C407.538 455.011 407.32 453.16 405.359 451.772L397.518 446.913C395.34 445.525 392.073 445.525 389.894 446.913C387.716 448.302 387.716 450.384 389.894 451.541ZM409.28 463.571L417.122 468.43C419.3 469.818 422.567 469.818 424.745 468.43C426.923 467.041 426.706 465.191 424.745 463.802L416.904 458.944C414.726 457.556 411.458 457.556 409.28 458.944C407.102 460.101 407.102 462.183 409.28 463.571ZM428.884 475.602L436.725 480.46C438.903 481.848 442.171 481.848 444.349 480.46C446.527 479.072 446.309 477.221 444.349 475.833L436.507 470.974C434.329 469.586 431.062 469.586 428.884 470.974C426.706 472.131 426.706 474.213 428.884 475.602ZM448.27 487.401L456.111 492.259C458.289 493.647 461.557 493.647 463.735 492.259C465.913 490.871 465.695 489.02 463.735 487.632L455.893 482.774C453.715 481.385 450.448 481.385 448.27 482.774C446.091 484.162 446.091 486.244 448.27 487.401ZM467.655 499.431L475.497 504.29C477.675 505.678 480.942 505.678 483.12 504.29C485.299 502.902 485.081 501.051 483.12 499.663L475.279 494.804C473.101 493.416 469.834 493.416 467.655 494.804C465.695 495.961 465.695 498.043 467.655 499.431ZM487.695 511.693L495.536 516.551C497.714 517.94 500.982 517.94 503.16 516.551C505.338 515.163 505.12 513.313 503.16 511.924L495.318 507.066C493.14 505.678 489.873 505.678 487.695 507.066C485.517 508.223 485.517 510.305 487.695 511.693ZM227.184 374.036L233.937 378.201C236.333 379.589 240.253 379.589 242.432 378.201L249.184 374.036C251.58 372.648 251.58 370.335 249.184 368.715L242.432 364.551C240.036 363.163 236.115 363.163 233.937 364.551L227.184 368.715C224.788 370.335 224.788 372.648 227.184 374.036ZM262.035 390.231L268.788 386.067C271.184 384.679 271.184 382.365 268.788 380.746L262.035 376.581C259.639 375.193 255.718 375.193 253.54 376.581L246.788 380.746C244.392 382.134 244.392 384.447 246.788 386.067L253.54 390.231C255.936 391.619 259.639 391.619 262.035 390.231ZM266.174 397.866L272.926 402.03C275.322 403.419 279.243 403.419 281.421 402.03L288.173 397.866C290.569 396.478 290.569 394.164 288.173 392.545L281.421 388.38C279.025 386.992 275.104 386.992 272.926 388.38L266.174 392.545C263.778 394.164 263.778 396.478 266.174 397.866ZM285.777 409.897L292.53 414.061C294.926 415.449 298.846 415.449 301.025 414.061L307.777 409.897C310.173 408.508 310.173 406.195 307.777 404.575L301.025 400.411C298.629 399.023 294.708 399.023 292.53 400.411L285.777 404.575C283.381 406.195 283.381 408.508 285.777 409.897ZM327.163 416.606L320.41 412.441C318.014 411.053 314.094 411.053 311.915 412.441L305.163 416.606C302.767 417.994 302.767 420.308 305.163 421.927L311.915 426.091C314.311 427.48 318.232 427.48 320.41 426.091L327.163 421.927C329.559 420.539 329.559 417.994 327.163 416.606ZM346.766 428.636L340.014 424.472C337.618 423.084 333.697 423.084 331.519 424.472L324.767 428.636C322.371 430.024 322.371 432.338 324.767 433.958L331.519 438.122C333.915 439.51 337.836 439.51 340.014 438.122L346.766 433.958C348.945 432.338 348.945 430.024 346.766 428.636ZM366.152 440.435L359.4 436.271C357.004 434.883 353.083 434.883 350.905 436.271L344.153 440.435C341.757 441.824 341.757 444.137 344.153 445.757L350.905 449.921C353.301 451.309 357.222 451.309 359.4 449.921L366.152 445.757C368.548 444.369 368.548 442.055 366.152 440.435ZM385.538 452.466L378.786 448.302C376.39 446.913 372.469 446.913 370.291 448.302L363.538 452.466C361.142 453.854 361.142 456.168 363.538 457.787L370.291 461.952C372.687 463.34 376.607 463.34 378.786 461.952L385.538 457.787C387.934 456.399 387.934 453.854 385.538 452.466ZM405.142 464.496L398.389 460.332C395.993 458.944 392.073 458.944 389.894 460.332L383.142 464.496C380.746 465.885 380.746 468.198 383.142 469.818L389.894 473.982C392.29 475.37 396.211 475.37 398.389 473.982L405.142 469.818C407.538 468.198 407.538 465.885 405.142 464.496ZM424.527 476.296L417.775 472.131C415.379 470.743 411.458 470.743 409.28 472.131L402.528 476.296C400.132 477.684 400.132 479.997 402.528 481.617L409.28 485.781C411.676 487.169 415.597 487.169 417.775 485.781L424.527 481.617C426.923 480.229 426.923 477.915 424.527 476.296ZM422.131 493.647L428.884 497.812C431.28 499.2 435.201 499.2 437.379 497.812L444.131 493.647C446.527 492.259 446.527 489.946 444.131 488.326L437.379 484.162C434.983 482.774 431.062 482.774 428.884 484.162L422.131 488.326C419.735 489.714 419.735 492.028 422.131 493.647ZM463.517 500.357L456.765 496.192C454.369 494.804 450.448 494.804 448.27 496.192L441.517 500.357C439.121 501.745 439.121 504.058 441.517 505.678L448.27 509.842C450.666 511.23 454.586 511.23 456.765 509.842L463.517 505.678C465.913 504.058 465.913 501.745 463.517 500.357ZM492.051 517.708L476.586 508.223C474.19 506.835 470.269 506.835 468.091 508.223L461.339 512.387C458.943 513.775 458.943 516.089 461.339 517.708L476.804 527.194C479.2 528.582 483.12 528.582 485.299 527.194L492.051 523.029C494.447 521.641 494.447 519.328 492.051 517.708ZM209.105 385.141L224.57 394.627C226.966 396.015 230.887 396.015 233.065 394.627L239.818 390.463C242.214 389.075 242.214 386.761 239.818 385.141L224.353 375.656C221.957 374.268 218.036 374.268 215.858 375.656L209.105 379.82C206.709 381.208 206.927 383.753 209.105 385.141ZM237.422 402.493L244.174 406.658C246.57 408.046 250.491 408.046 252.669 406.658L259.421 402.493C261.817 401.105 261.817 398.791 259.421 397.172L252.669 393.008C250.273 391.619 246.352 391.619 244.174 393.008L237.422 397.172C235.026 398.56 235.026 400.874 237.422 402.493ZM263.56 418.457C265.956 419.845 269.877 419.845 272.055 418.457L278.807 414.292C281.203 412.904 281.203 410.591 278.807 408.971L272.055 404.807C269.659 403.419 265.738 403.419 263.56 404.807L256.808 408.971C254.412 410.359 254.412 412.673 256.808 414.292L263.56 418.457ZM282.946 430.487C285.342 431.875 289.262 431.875 291.441 430.487L298.193 426.323C300.589 424.935 300.589 422.621 298.193 421.002L291.441 416.837C289.045 415.449 285.124 415.449 282.946 416.837L276.193 421.002C273.797 422.39 273.797 424.703 276.193 426.323L282.946 430.487ZM302.549 428.868L295.797 433.032C293.401 434.42 293.401 436.734 295.797 438.353L302.549 442.518C304.945 443.906 308.866 443.906 311.044 442.518L317.797 438.353C320.193 436.965 320.193 434.652 317.797 433.032L311.044 428.868C308.648 427.48 304.728 427.48 302.549 428.868ZM322.371 440.667L314.747 445.294C312.569 446.682 312.569 448.764 314.747 450.152L322.371 454.78C324.549 456.168 328.034 456.168 330.212 454.78L337.836 450.152C340.014 448.764 340.014 446.682 337.836 445.294L330.212 440.667C328.034 439.279 324.549 439.279 322.371 440.667ZM341.757 452.466L334.133 457.093C331.955 458.481 331.955 460.563 334.133 461.952L341.757 466.579C343.935 467.967 347.42 467.967 349.598 466.579L357.222 461.952C359.4 460.563 359.4 458.481 357.222 457.093L349.598 452.466C347.42 451.309 343.935 451.078 341.757 452.466ZM361.36 464.496L353.737 469.124C351.558 470.512 351.558 472.594 353.737 473.982L361.36 478.609C363.538 479.997 367.023 479.997 369.202 478.609L376.825 473.982C379.003 472.594 379.003 470.512 376.825 469.124L369.202 464.496C367.023 463.108 363.538 463.108 361.36 464.496ZM380.746 476.296L373.122 480.923C370.944 482.311 370.944 484.393 373.122 485.781L380.746 490.408C382.924 491.796 386.409 491.796 388.587 490.408L396.211 485.781C398.389 484.393 398.389 482.311 396.211 480.923L388.587 476.296C386.409 475.139 382.924 475.139 380.746 476.296ZM400.35 488.326L392.726 492.953C390.548 494.341 390.548 496.424 392.726 497.812L400.35 502.439C402.528 503.827 406.013 503.827 408.191 502.439L415.815 497.812C417.993 496.424 417.993 494.341 415.815 492.953L408.191 488.326C405.795 486.938 402.528 486.938 400.35 488.326ZM427.577 514.238L435.201 509.611C437.379 508.223 437.379 506.14 435.201 504.752L427.577 500.125C425.399 498.737 421.914 498.737 419.735 500.125L412.112 504.752C409.934 506.14 409.934 508.223 412.112 509.611L419.735 514.238C421.914 515.626 425.399 515.626 427.577 514.238ZM447.18 526.268L454.804 521.641C456.982 520.253 456.982 518.171 454.804 516.783L447.18 512.156C445.002 510.768 441.517 510.768 439.339 512.156L431.715 516.783C429.537 518.171 429.537 520.253 431.715 521.641L439.339 526.268C441.517 527.657 445.002 527.657 447.18 526.268ZM474.408 529.045L466.784 524.418C464.606 523.029 461.121 523.029 458.943 524.418L451.319 529.045C449.141 530.433 449.141 532.515 451.319 533.903L458.943 538.53C461.121 539.918 464.606 539.918 466.784 538.53L474.408 533.903C476.586 532.515 476.586 530.433 474.408 529.045ZM190.809 396.015L215.204 411.053C217.382 412.441 220.868 412.441 223.046 411.053L230.669 406.426C232.848 405.038 232.848 402.956 230.669 401.568L206.274 386.53C204.096 385.141 200.61 385.141 198.432 386.53L190.809 391.157C188.63 392.545 188.63 394.627 190.809 396.015ZM227.184 418.225L234.808 422.852C236.986 424.241 240.471 424.241 242.649 422.852L250.273 418.225C252.451 416.837 252.451 414.755 250.273 413.367L242.649 408.74C240.471 407.352 236.986 407.352 234.808 408.74L227.184 413.367C225.006 414.755 225.006 416.837 227.184 418.225ZM246.57 430.256L254.194 434.883C256.372 436.271 259.857 436.271 262.035 434.883L269.659 430.256C271.837 428.868 271.837 426.785 269.659 425.397L262.035 420.77C259.857 419.382 256.372 419.382 254.194 420.77L246.57 425.397C244.392 426.785 244.392 428.868 246.57 430.256ZM265.956 442.055L273.579 446.682C275.758 448.07 279.243 448.07 281.421 446.682L289.045 442.055C291.223 440.667 291.223 438.585 289.045 437.196L281.421 432.569C279.243 431.181 275.758 431.181 273.579 432.569L265.956 437.196C263.995 438.585 263.995 440.898 265.956 442.055ZM300.807 458.713L308.43 454.085C310.609 452.697 310.609 450.615 308.43 449.227L300.807 444.6C298.629 443.212 295.143 443.212 292.965 444.6L285.342 449.227C283.163 450.615 283.163 452.697 285.342 454.085L292.965 458.713C295.361 460.101 298.629 460.101 300.807 458.713ZM320.41 470.743L328.034 466.116C330.212 464.728 330.212 462.646 328.034 461.258L320.41 456.63C318.232 455.242 314.747 455.242 312.569 456.63L304.945 461.258C302.767 462.646 302.767 464.728 304.945 466.116L312.569 470.743C314.747 471.9 318.232 471.9 320.41 470.743ZM339.796 482.542L347.42 477.915C349.598 476.527 349.598 474.445 347.42 473.057L339.796 468.43C337.618 467.041 334.133 467.041 331.955 468.43L324.331 473.057C322.153 474.445 322.153 476.527 324.331 477.915L331.955 482.542C334.133 483.93 337.618 483.93 339.796 482.542ZM359.4 494.573L367.023 489.946C369.202 488.557 369.202 486.475 367.023 485.087L359.4 480.46C357.222 479.072 353.737 479.072 351.558 480.46L343.935 485.087C341.757 486.475 341.757 488.557 343.935 489.946L351.558 494.573C353.737 495.961 357.222 495.961 359.4 494.573ZM378.786 506.603L386.409 501.976C388.587 500.588 388.587 498.506 386.409 497.118L378.786 492.491C376.607 491.102 373.122 491.102 370.944 492.491L363.321 497.118C361.142 498.506 361.142 500.588 363.321 501.976L370.944 506.603C373.122 507.76 376.607 507.76 378.786 506.603ZM398.389 518.402L406.013 513.775C408.191 512.387 408.191 510.305 406.013 508.917L398.389 504.29C396.211 502.902 392.726 502.902 390.548 504.29L382.924 508.917C380.746 510.305 380.746 512.387 382.924 513.775L390.548 518.402C392.726 519.79 396.211 519.79 398.389 518.402ZM402.528 525.806L410.151 530.433C412.33 531.821 415.815 531.821 417.993 530.433L425.617 525.806C427.795 524.418 427.795 522.335 425.617 520.947L417.993 516.32C415.815 514.932 412.33 514.932 410.151 516.32L402.528 520.947C400.35 522.335 400.35 524.418 402.528 525.806ZM456.329 540.15L437.161 528.351C434.983 526.963 431.498 526.963 429.319 528.351L421.696 532.978C419.518 534.366 419.518 536.448 421.696 537.836L440.864 549.635C443.042 551.023 446.527 551.023 448.705 549.635L456.329 545.008C458.507 543.62 458.507 541.538 456.329 540.15ZM172.73 407.583L207.363 428.868C209.759 430.256 213.68 430.256 216.076 428.868L222.61 424.935C225.006 423.546 225.006 421.002 222.61 419.613L187.977 398.329C185.581 396.941 181.66 396.941 179.264 398.329L172.73 402.262C170.334 403.65 170.334 406.195 172.73 407.583ZM220.432 436.734L226.966 440.667C229.362 442.055 233.283 442.055 235.679 440.667L242.214 436.734C244.61 435.346 244.61 432.801 242.214 431.413L235.679 427.48C233.283 426.091 229.362 426.091 226.966 427.48L220.432 431.413C217.818 432.801 218.036 435.346 220.432 436.734ZM239.818 448.764L246.352 452.697C248.748 454.085 252.669 454.085 255.065 452.697L261.599 448.764C263.995 447.376 263.995 444.831 261.599 443.443L255.065 439.51C252.669 438.122 248.748 438.122 246.352 439.51L239.818 443.443C237.422 444.831 237.422 447.145 239.818 448.764ZM259.421 460.563L265.956 464.496C268.352 465.885 272.273 465.885 274.669 464.496L281.203 460.563C283.599 459.175 283.599 456.63 281.203 455.242L274.669 451.309C272.273 449.921 268.352 449.921 265.956 451.309L259.421 455.242C256.807 456.862 256.807 459.175 259.421 460.563ZM278.807 472.594L285.342 476.527C287.738 477.915 291.658 477.915 294.054 476.527L300.589 472.594C302.985 471.206 302.985 468.661 300.589 467.273L294.054 463.34C291.658 461.952 287.738 461.952 285.342 463.34L278.807 467.273C276.411 468.661 276.411 471.206 278.807 472.594ZM298.193 484.624L304.728 488.557C307.124 489.946 311.044 489.946 313.44 488.557L319.975 484.624C322.371 483.236 322.371 480.691 319.975 479.303L313.44 475.37C311.044 473.982 307.124 473.982 304.728 475.37L298.193 479.303C295.797 480.691 295.797 483.005 298.193 484.624ZM317.797 496.424L324.331 500.357C326.727 501.745 330.648 501.745 333.044 500.357L339.578 496.424C341.974 495.035 341.974 492.491 339.578 491.102L333.044 487.169C330.648 485.781 326.727 485.781 324.331 487.169L317.797 491.102C315.401 492.722 315.401 495.035 317.797 496.424ZM337.182 508.454L343.717 512.387C346.113 513.775 350.034 513.775 352.43 512.387L358.964 508.454C361.36 507.066 361.36 504.521 358.964 503.133L352.43 499.2C350.034 497.812 346.113 497.812 343.717 499.2L337.182 503.133C334.786 504.521 334.786 507.066 337.182 508.454ZM356.786 520.485L363.321 524.418C365.717 525.806 369.637 525.806 372.033 524.418L378.568 520.485C380.964 519.096 380.964 516.551 378.568 515.163L372.033 511.23C369.637 509.842 365.717 509.842 363.321 511.23L356.786 515.163C354.39 516.551 354.39 518.865 356.786 520.485ZM376.172 532.284L382.706 536.217C385.102 537.605 389.023 537.605 391.419 536.217L397.954 532.284C400.35 530.896 400.35 528.351 397.954 526.963L391.419 523.029C389.023 521.641 385.102 521.641 382.706 523.029L376.172 526.963C373.776 528.351 373.776 530.896 376.172 532.284ZM395.775 544.314L402.31 548.247C404.706 549.635 408.627 549.635 411.023 548.247L417.557 544.314C419.953 542.926 419.953 540.381 417.557 538.993L411.023 535.06C408.627 533.672 404.706 533.672 402.31 535.06L395.775 538.993C393.379 540.381 393.379 542.926 395.775 544.314ZM437.379 551.255L430.844 547.322C428.448 545.934 424.527 545.934 422.131 547.322L415.597 551.255C413.201 552.643 413.201 555.188 415.597 556.576L422.131 560.509C424.527 561.897 428.448 561.897 430.844 560.509L437.379 556.576C439.775 555.188 439.775 552.643 437.379 551.255ZM185.145 418.688L169.898 409.434C167.502 408.046 163.581 408.046 161.185 409.434L154.651 413.367C152.255 414.755 152.255 417.3 154.651 418.688L169.898 427.942C172.294 429.33 176.215 429.33 178.611 427.942L185.145 424.009C187.541 422.621 187.541 420.076 185.145 418.688ZM204.749 430.487L198.214 426.554C195.818 425.166 191.898 425.166 189.502 426.554L182.967 430.487C180.571 431.875 180.571 434.42 182.967 435.808L189.502 439.741C191.898 441.13 195.818 441.13 198.214 439.741L204.749 435.808C207.145 434.42 207.145 432.107 204.749 430.487ZM224.135 442.518L217.6 438.585C215.204 437.197 211.284 437.197 208.888 438.585L202.353 442.518C199.957 443.906 199.957 446.451 202.353 447.839L208.888 451.772C211.284 453.16 215.204 453.16 217.6 451.772L224.135 447.839C226.531 446.451 226.531 443.906 224.135 442.518ZM360.489 526.268L236.986 450.615C234.59 449.227 230.669 449.227 228.273 450.615L221.739 454.548C219.343 455.936 219.343 458.481 221.739 459.869L345.242 535.523C347.638 536.911 351.558 536.911 353.954 535.523L360.489 531.59C362.885 529.97 362.885 527.657 360.489 526.268ZM380.093 538.068L373.558 534.135C371.162 532.746 367.241 532.746 364.845 534.135L358.311 538.068C355.915 539.456 355.915 542.001 358.311 543.389L364.845 547.322C367.241 548.71 371.162 548.71 373.558 547.322L380.093 543.389C382.489 542.001 382.489 539.687 380.093 538.068ZM399.478 550.098L392.944 546.165C390.548 544.777 386.627 544.777 384.231 546.165L377.697 550.098C375.301 551.486 375.301 554.031 377.697 555.419L384.231 559.352C386.627 560.74 390.548 560.74 392.944 559.352L399.478 555.419C401.874 554.031 401.874 551.486 399.478 550.098ZM419.3 562.36L412.765 558.427C410.369 557.039 406.449 557.039 404.053 558.427L397.518 562.36C395.122 563.748 395.122 566.293 397.518 567.681L404.053 571.614C406.449 573.002 410.369 573.002 412.765 571.614L419.3 567.681C421.914 566.062 421.914 563.748 419.3 562.36Z" fill="url(#paint5_linear_4_14151)"/>
<path d="M568.07 506.603L263.778 319.899C252.016 312.727 242.432 293.293 242.432 276.635V23.3007C242.432 6.64309 252.016 -0.991653 263.778 6.18037L568.07 192.653C579.832 199.825 589.416 219.259 589.416 235.917V489.482C589.416 506.14 579.832 513.775 568.07 506.603Z" fill="url(#paint6_linear_4_14151)"/>
<path d="M570.901 493.648L269.877 309.026C260.293 302.548 254.629 289.824 254.629 276.868V21.9136C254.629 18.906 257.897 16.8238 260.293 18.4433C260.51 18.6746 260.728 18.6746 260.946 18.906L562.189 203.759C573.515 210.7 577.436 222.962 577.436 235.918V489.946C577.436 493.185 573.951 495.267 571.337 493.648C571.119 493.879 570.901 493.648 570.901 493.648Z" fill="url(#paint7_linear_4_14151)"/>
<path d="M561.971 203.759L260.946 18.906C260.728 18.906 260.51 18.6746 260.293 18.4433C257.679 16.8238 254.629 18.906 254.629 21.9136V276.636C254.629 289.824 260.51 302.548 269.877 308.795L570.901 493.417C571.119 493.417 571.119 493.648 571.337 493.648C573.951 495.267 577.436 493.185 577.436 489.946V235.918C577.436 222.962 573.297 210.7 561.971 203.759ZM575.04 490.178C575.04 491.334 574.169 492.028 573.297 492.028C573.08 492.028 572.644 492.028 572.426 491.797L270.966 306.944C262.471 301.16 256.808 289.361 256.808 276.868V21.9136C256.808 20.9882 257.461 20.5255 258.114 20.5255C258.332 20.5255 258.55 20.5255 258.768 20.7568L560.664 206.073C572.426 213.245 574.822 226.432 574.822 236.149V490.178H575.04Z" fill="#BCBEC0"/>
<path d="M574.169 189.415L269.877 2.71127C265.303 -0.0649964 260.946 -0.75907 257.461 0.860419C257.026 1.09178 251.145 4.33075 250.709 4.56211C254.412 2.71126 258.986 2.94263 263.996 6.18161L568.07 192.654C579.832 199.826 589.416 219.26 589.416 235.918V489.484C589.416 499.895 585.713 506.835 580.05 508.686C580.485 508.686 581.139 508.455 582.01 507.992C582.228 507.761 588.763 504.059 588.98 503.828C593.119 500.82 595.515 494.573 595.515 486.013V232.679C595.515 216.021 585.931 196.587 574.169 189.415Z" fill="url(#paint8_linear_4_14151)"/>
<path d="M569.159 192.193L264.867 5.48931C260.075 2.48169 255.501 2.01899 252.016 3.63848C255.065 3.17577 258.55 3.86983 262.253 6.18339L566.545 192.887C578.307 200.059 587.891 219.493 587.891 236.151V489.717C587.891 499.665 584.624 506.143 579.396 508.688C585.931 507.531 590.505 500.359 590.505 489.023V235.457C590.505 218.799 580.921 199.365 569.159 192.193Z" fill="url(#paint9_radial_4_14151)"/>
<path opacity="0.2" d="M523.454 224.68L307.161 93.9635C306.507 124.503 307.161 220.515 306.943 251.748C306.725 302.415 299.537 342.44 244.429 388.248C226.786 402.823 149.46 447.706 86.7288 482.641C61.244 496.754 59.2837 502.769 46.4324 514.568C34.0168 525.905 14.8488 536.316 9.18555 539.786L224.172 671.89C228.093 669.345 249.003 658.24 262.944 645.747C275.795 634.179 277.755 621.686 303.24 607.573C365.972 572.407 473.574 502.306 492.742 490.044C517.355 474.312 523.454 464.595 523.454 423.414C523.236 392.181 523.019 254.756 523.454 224.68Z" fill="#231F20"/>
<path d="M523.454 209.641L307.16 78.9254C306.507 109.464 307.16 233.934 306.943 265.167C306.725 315.834 299.537 327.401 244.429 373.21C226.785 387.785 149.46 432.668 86.7283 467.603C61.2436 481.716 57.105 499.993 44.2537 511.561C31.8381 522.897 17.8978 525.905 12.2345 529.375L227.221 661.479C231.142 658.934 246.825 655.233 260.547 642.739C273.399 631.171 277.537 612.894 303.022 598.782C365.754 563.616 443.297 518.964 460.722 504.389C515.83 458.58 523.018 447.012 523.236 396.346C523.454 364.881 523.018 239.718 523.454 209.641Z" fill="url(#paint10_linear_4_14151)"/>
<path d="M203.48 458.118C203.262 458.118 203.262 458.118 203.044 457.887L188.45 448.864C188.232 448.632 188.014 448.401 188.014 447.938C188.014 447.476 188.232 447.244 188.45 447.013L202.826 438.221C203.044 437.99 203.48 437.99 203.697 438.221L218.291 447.244C218.509 447.476 218.727 447.707 218.727 448.17C218.727 448.632 218.509 448.864 218.291 449.095L203.915 457.887C203.697 458.118 203.48 458.118 203.48 458.118ZM190.628 448.17L203.262 456.036L215.895 448.401L203.262 440.535L190.628 448.17Z" fill="#B086CC"/>
<path d="M176.034 437.758C176.034 437.527 176.034 437.527 176.034 437.758L176.252 437.527L188.886 434.057C189.321 434.057 189.539 434.057 189.757 434.057L191.282 434.982C191.499 435.213 191.5 435.213 191.5 435.445L185.836 443.311H185.618C185.401 443.311 185.401 443.311 185.401 443.311L184.094 442.617C183.876 442.385 183.876 442.385 183.876 442.154L184.965 440.766L180.826 438.221L178.43 438.915C178.213 438.915 177.995 438.915 177.777 438.915L176.034 437.758ZM182.569 437.296L185.836 439.378L188.668 435.676L182.569 437.296Z" fill="url(#paint11_linear_4_14151)"/>
<path d="M247.915 485.417C247.697 485.417 247.697 485.417 247.479 485.186L232.885 476.163C232.667 475.932 232.45 475.7 232.45 475.238C232.45 474.775 232.667 474.544 232.885 474.312L247.261 465.521C247.479 465.289 247.915 465.289 248.132 465.521L262.726 474.544C262.944 474.775 263.162 475.006 263.162 475.469C263.162 475.932 262.944 476.163 262.726 476.394L248.35 485.186C248.132 485.417 247.915 485.417 247.915 485.417ZM235.063 475.469L247.697 483.335L260.33 475.7L247.697 467.834L235.063 475.469Z" fill="#B086CC"/>
<path d="M221.341 465.521C221.341 465.521 221.559 465.289 221.341 465.521L230.707 459.505C230.707 459.505 230.925 459.505 231.142 459.505C231.36 459.505 231.36 459.505 231.578 459.505L235.717 462.05C236.806 462.744 237.459 463.438 237.459 464.132C237.459 464.826 237.241 465.289 236.37 465.983C235.934 466.215 235.281 466.446 234.845 466.446C234.192 466.446 233.756 466.446 233.321 466.446C233.538 466.909 233.538 467.14 233.538 467.603C233.321 468.065 233.103 468.297 232.449 468.76C231.578 469.222 230.489 469.454 229.4 469.454C228.311 469.454 227.222 468.991 226.133 468.297L221.341 465.521C221.559 465.752 221.341 465.521 221.341 465.521ZM227.222 467.371C227.657 467.603 228.311 467.834 228.746 467.834C229.4 467.834 229.836 467.603 230.271 467.371C230.707 467.14 230.925 466.909 230.925 466.446C230.925 466.215 230.707 465.752 230.271 465.521L227.875 464.132L225.044 465.983L227.222 467.371ZM231.36 464.595C231.796 464.826 232.449 465.058 232.885 465.058C233.321 465.058 233.756 465.058 234.192 464.826C234.628 464.595 234.845 464.364 234.628 464.132C234.628 463.901 234.41 463.438 233.756 463.207L231.578 461.819L228.964 463.438L231.36 464.595Z" fill="url(#paint12_linear_4_14151)"/>
<path d="M291.26 512.023C291.043 512.023 291.043 512.023 290.825 511.792L276.231 502.769C276.013 502.537 275.795 502.306 275.795 501.843C275.795 501.381 276.013 501.149 276.231 500.918L290.607 492.126C290.825 491.895 291.26 491.895 291.478 492.126L306.072 501.149C306.29 501.381 306.508 501.612 306.508 502.075C306.508 502.537 306.29 502.769 306.072 503L291.696 511.792C291.478 512.023 291.26 512.023 291.26 512.023ZM278.409 502.075L291.043 509.941L303.676 502.306L291.043 494.44L278.409 502.075Z" fill="#B086CC"/>
<path d="M266.211 492.126C266.211 491.2 266.647 490.506 267.954 489.581C268.172 489.35 268.607 489.118 269.261 488.887C269.914 488.424 270.35 488.193 270.568 488.193C271.874 487.499 273.181 487.036 274.488 487.267C275.795 487.267 277.32 487.73 278.627 488.424C279.498 488.887 280.152 489.581 280.369 490.044C280.805 490.506 280.805 491.2 280.587 491.663C280.369 492.126 280.152 492.589 279.498 493.051H279.28C279.063 493.051 279.063 493.051 279.063 493.051L277.756 492.126C277.538 492.126 277.538 491.895 277.538 491.895C277.538 491.895 277.538 491.663 277.756 491.663C278.191 491.2 278.409 490.738 278.191 490.506C277.973 490.044 277.756 489.812 277.102 489.35C275.795 488.424 274.271 488.424 272.746 489.35C272.528 489.581 272.092 489.812 271.439 490.044C271.003 490.275 270.568 490.506 270.132 490.738C268.607 491.663 268.607 492.589 269.914 493.514C270.568 493.977 271.003 493.977 271.657 494.208C272.31 494.208 272.964 494.208 273.617 493.977C273.835 493.977 273.835 493.977 274.053 493.977C274.27 493.977 274.27 493.977 274.488 493.977L275.795 494.902C275.795 494.902 276.013 494.902 276.013 495.133C276.013 495.133 276.013 495.365 275.795 495.365C275.142 495.828 274.488 496.059 273.617 496.059C272.746 496.059 271.874 496.059 271.003 495.828C270.132 495.596 269.261 495.365 268.389 494.671C266.865 493.745 266.211 492.82 266.211 492.126Z" fill="url(#paint13_linear_4_14151)"/>
<path d="M290.607 477.782L296.052 474.312L276.448 462.281L271.003 465.752L290.607 477.782ZM320.665 475.237L276.448 448.169L271.003 451.639L315.22 478.707L320.665 475.237ZM221.776 435.675L265.993 462.744L271.439 459.274L227.221 432.205L221.776 435.675ZM312.171 451.639L237.677 405.83L230.053 409.995L304.547 455.803L312.171 451.639ZM325.457 478.245L320.012 481.715L331.121 488.424L336.566 484.954L325.457 478.245ZM295.181 480.79L332.645 503.694L338.091 500.224L300.626 477.319L295.181 480.79ZM337.22 506.47L377.298 530.994L382.744 527.524L342.665 503L337.22 506.47ZM390.149 517.807L341.14 487.73L335.695 491.201L384.704 521.277L390.149 517.807ZM222.647 429.429L210.449 422.025L205.004 425.496L217.202 432.899L222.647 429.429ZM271.656 445.161L222.212 414.853L216.766 418.324L266.211 448.631L271.656 445.161Z" fill="#B086CC"/>
<path d="M206.747 522.202L212.192 518.732L201.083 512.023L195.638 515.493L206.747 522.202ZM252.706 529.143L190.846 491.201L185.401 494.671L247.261 532.613L252.706 529.143ZM146.847 485.417L191.064 512.486L196.509 509.015L152.292 481.947L146.847 485.417ZM295.834 555.749L257.498 532.151L252.053 535.621L290.389 559.219L295.834 555.749ZM230.053 495.828L155.559 450.019L147.936 454.184L222.43 499.992L230.053 495.828ZM265.993 551.816L216.984 521.74L211.539 525.21L260.548 555.286L265.993 551.816ZM294.963 561.996L306.507 568.936L311.953 565.466L300.408 558.525L294.963 561.996ZM147.5 479.17L127.897 467.14L122.451 470.61L142.055 482.641L147.5 479.17ZM186.272 488.425L139.659 459.968L134.213 463.438L180.826 491.895L186.272 488.425Z" fill="#B086CC"/>
<path d="M385.792 425.958C388.406 423.645 390.802 421.331 393.198 419.249L296.705 357.477C294.744 359.79 292.566 362.104 290.17 364.417L385.792 425.958Z" fill="#B086CC"/>
<path d="M397.772 442.384C396.248 443.772 394.505 445.392 392.98 446.78L425.435 467.602C426.96 465.983 428.267 464.594 429.792 462.975L397.772 442.384Z" fill="#B086CC"/>
<path d="M339.179 404.674C337.654 406.294 335.912 407.682 334.169 409.301L370.981 432.9C372.505 431.28 374.03 429.661 375.337 428.041L339.179 404.674Z" fill="#B086CC"/>
<path d="M334.823 401.897L284.943 369.739C283.2 371.358 281.676 372.977 279.933 374.597L330.249 406.755C331.774 405.136 333.298 403.516 334.823 401.897Z" fill="#B086CC"/>
<path d="M433.93 465.75C432.405 467.138 430.881 468.527 429.138 470.146L451.356 484.259C453.534 482.871 455.276 481.482 456.583 480.326L433.93 465.75Z" fill="#B086CC"/>
<path d="M393.416 439.608L379.693 430.816C378.169 432.204 376.426 433.824 374.901 435.212L389.277 444.466C390.584 442.615 391.891 441.227 393.416 439.608Z" fill="#B086CC"/>
<path d="M232.449 490.738L254.884 452.796C254.884 452.796 296.488 498.142 294.309 502.537C291.913 506.933 232.449 490.738 232.449 490.738Z" fill="url(#paint14_linear_4_14151)"/>
<path opacity="0.2" d="M116.569 606.184L257.28 516.88C257.28 516.88 258.369 516.186 259.023 515.955C273.181 507.858 291.478 501.38 291.478 501.38C293.656 500.686 294.745 501.148 294.309 504.156C293.656 506.932 292.567 508.783 289.517 511.791C289.517 511.791 268.607 530.068 255.32 539.553C254.666 540.247 253.795 540.941 253.142 541.404C253.142 541.404 253.142 541.404 252.924 541.404L111.56 631.633L116.569 606.184Z" fill="url(#paint15_radial_4_14151)"/>
<path opacity="0.3" d="M213.716 549.734L276.884 509.709C276.884 509.709 277.319 509.478 277.537 509.246C283.854 505.545 292.131 502.768 292.131 502.768C293.22 502.306 292.567 506.007 291.26 507.396C291.26 507.396 281.894 515.724 275.795 519.889C275.359 520.12 275.141 520.352 274.706 520.583L211.32 561.07L213.716 549.734Z" fill="url(#paint16_radial_4_14151)"/>
<path d="M89.3423 372.053C87.5997 375.523 106.768 389.867 132.252 404.211C157.737 418.324 179.737 427.115 181.479 423.645C183.222 420.175 164.054 405.831 138.569 391.487C113.302 377.142 91.0848 368.582 89.3423 372.053Z" fill="url(#paint17_radial_4_14151)"/>
<path d="M111.124 370.666L251.399 450.252C253.795 451.64 255.755 453.722 257.28 456.036L260.983 462.283C262.29 464.596 260.765 467.604 258.151 467.604H249.003L104.154 384.778L111.124 370.666Z" fill="url(#paint18_linear_4_14151)"/>
<path d="M104.154 385.239L249.003 468.065L252.27 475.468C253.142 477.55 252.052 480.095 249.874 480.326L240.944 481.715L99.5797 401.203L104.154 385.239Z" fill="url(#paint19_linear_4_14151)"/>
<path d="M99.5796 401.202L91.9559 411.15L230.924 490.274C233.102 491.431 235.716 491.662 237.894 490.505L241.379 488.655C243.122 488.192 243.775 486.11 242.904 484.49L241.161 481.714L99.5796 401.202Z" fill="url(#paint20_linear_4_14151)"/>
<path d="M62.7684 395.188L83.4611 354.238L110.906 369.739C110.906 369.739 110.906 369.739 111.124 369.739C117.223 373.21 117.659 385.24 111.995 396.576C106.332 407.913 96.5302 414.16 90.4313 410.689C90.4313 410.689 90.4313 410.689 90.2135 410.689L62.7684 395.188Z" fill="url(#paint21_linear_4_14151)"/>
<path d="M62.7684 395.188C68.8673 398.659 78.6692 392.412 84.3325 381.076C89.9958 369.739 89.778 357.709 83.4612 354.239C77.3623 350.768 67.5604 357.015 61.8971 368.351C56.2338 379.688 56.6695 391.718 62.7684 395.188Z" fill="url(#paint22_linear_4_14151)"/>
<path d="M83.4611 381.075C89.1244 369.739 88.9066 357.708 82.5899 354.238C82.3721 354.238 82.3721 354.007 82.1543 354.007C82.8077 354.238 83.4612 354.469 84.1146 354.701C90.2135 358.171 90.6492 370.202 84.9859 381.538C79.3226 392.643 69.9564 398.89 63.8575 395.882C70.1743 397.27 78.4513 391.255 83.4611 381.075Z" fill="url(#paint23_radial_4_14151)"/>
<path d="M45.7786 384.082L65.1644 345.909L81.7186 355.394C81.7186 355.394 81.7186 355.394 81.9364 355.394C87.8175 358.633 88.0353 369.97 82.8077 380.612C77.3622 391.255 68.4317 397.038 62.5506 393.799C62.5506 393.799 62.5506 393.799 62.3328 393.799L45.7786 384.082Z" fill="url(#paint24_linear_4_14151)"/>
<path d="M45.7785 384.083C51.6596 387.322 60.5901 381.538 66.0356 370.896C71.481 360.254 71.0454 349.148 65.1643 345.678C59.2832 342.439 50.3527 348.223 44.9073 358.865C39.6797 369.508 40.1153 380.844 45.7785 384.083Z" fill="url(#paint25_linear_4_14151)"/>
<path d="M65.1641 370.434C69.9561 360.717 70.1739 350.537 65.8176 346.373C66.0354 346.373 66.0353 346.373 66.2532 346.604C72.1343 349.843 72.3521 361.18 67.1244 371.822C61.679 382.464 52.7484 388.248 46.8673 385.009C46.4317 384.778 45.9961 384.315 45.5604 383.852C51.2237 386.629 59.9364 380.845 65.1641 370.434Z" fill="url(#paint26_radial_4_14151)"/>
<path d="M285.161 487.961C284.072 493.051 281.894 497.909 278.844 501.842C287.121 503.23 293.438 503.924 294.092 502.536C294.963 501.148 291.042 495.133 285.161 487.961Z" fill="url(#paint27_radial_4_14151)"/>
<path d="M276.772 299.445V73.1791C276.772 63.6935 282.217 59.2978 288.97 63.2308L538.589 216.62C545.341 220.784 550.787 231.889 550.787 241.375V467.872L276.772 299.445Z" fill="url(#paint28_linear_4_14151)"/>
<path d="M554.49 466.022V239.524C554.49 230.039 549.044 218.702 542.292 214.769L292.455 61.3806C289.841 59.7611 287.227 59.5298 285.267 60.2238C285.049 60.2238 281.564 62.306 281.346 62.306C283.524 61.1493 286.138 61.3806 288.969 63.2314L538.589 216.62C545.341 220.785 550.787 231.89 550.787 241.375V467.873L554.49 466.022Z" fill="url(#paint29_linear_4_14151)"/>
<path d="M554.49 255.257V239.524C554.49 230.039 549.044 218.702 542.292 214.769L292.455 61.3806C289.841 59.7611 287.227 59.5298 285.267 60.2238C285.049 60.2238 281.564 62.306 281.346 62.306C283.524 61.1493 286.138 61.3806 288.969 63.2314L538.589 216.62C545.341 220.785 550.787 231.89 550.787 241.375V257.108L554.49 255.257Z" fill="url(#paint30_linear_4_14151)"/>
<path d="M538.807 216.62L288.97 63.2312C282.217 59.0668 276.772 63.4626 276.772 73.1795V88.449L551.005 256.876V241.606C551.005 231.89 545.559 220.784 538.807 216.62Z" fill="url(#paint31_linear_4_14151)"/>
<path d="M539.46 252.249V458.155L548.391 463.708V257.107L539.46 252.249Z" fill="url(#paint32_linear_4_14151)"/>
<path d="M540.767 368.389V446.356L547.084 450.289V371.859L540.767 368.389Z" fill="url(#paint33_linear_4_14151)"/>
<path d="M333.84 107.652C333.84 111.123 331.444 112.511 328.612 110.891C325.781 109.04 323.385 104.876 323.385 101.174C323.385 97.7039 325.781 96.3158 328.612 97.9353C331.444 99.7861 333.84 104.182 333.84 107.652Z" fill="url(#paint34_linear_4_14151)"/>
<path d="M317.286 97.9345C317.286 101.405 314.89 102.793 312.058 101.173C309.227 99.3226 306.831 95.1582 306.831 91.4565C306.831 87.9862 309.227 86.5981 312.058 88.2176C314.89 90.0684 317.286 94.2328 317.286 97.9345Z" fill="url(#paint35_linear_4_14151)"/>
<path d="M300.514 87.7555C300.514 91.2259 298.118 92.614 295.286 90.9945C292.454 89.1437 290.058 84.9793 290.058 81.2776C290.058 77.8073 292.454 76.4191 295.286 78.0386C298.118 79.8894 300.514 84.2852 300.514 87.7555Z" fill="url(#paint36_linear_4_14151)"/>
<path d="M438.174 226.801L412.254 210.837V216.39L438.174 232.353V226.801ZM441.877 234.667L461.045 246.466V240.913L441.877 229.114V234.667ZM408.333 208.755L395.482 200.889V206.441L408.333 214.307V208.755ZM391.561 198.344L361.72 180.067V185.619L391.561 203.896V198.344ZM389.165 178.216L304.434 125.467V134.027L389.165 186.776V178.216ZM358.017 177.753L326.869 158.551V164.103L358.017 183.306V177.753ZM322.949 156.468L304.434 144.669V150.222L322.949 162.021V156.468Z" fill="url(#paint37_linear_4_14151)"/>
<path d="M465.837 345.023L472.154 348.725V343.172L465.837 339.471V345.023ZM447.323 333.687L462.135 342.71V337.157L447.323 328.134V333.687ZM398.532 303.842L414.432 313.559V308.006L398.532 298.289V303.842ZM378.928 292.043L394.829 301.76V296.207L378.928 286.49V292.043ZM418.135 316.104L443.402 331.604V326.052L418.135 310.551V316.104ZM330.79 262.429L375.225 289.498V283.945L330.79 256.877V262.429ZM327.087 254.563L304.434 240.45V246.003L327.087 260.116V254.563ZM389.165 273.534L304.434 220.785V229.345L389.165 282.094V273.534Z" fill="url(#paint38_linear_4_14151)"/>
<defs>
<linearGradient id="paint0_linear_4_14151" x1="30.0592" y1="499.627" x2="616.202" y2="499.627" gradientUnits="userSpaceOnUse">
<stop offset="0.0555556" stop-color="#9F79B8"/>
<stop offset="0.2575" stop-color="#A17BBA"/>
<stop offset="0.3569" stop-color="#A783BF"/>
<stop offset="0.4338" stop-color="#B290C9"/>
<stop offset="0.4949" stop-color="#C1A1D5"/>
<stop offset="0.5067" stop-color="#C4A5D7"/>
<stop offset="0.5196" stop-color="#CDB3DD"/>
<stop offset="0.5329" stop-color="#DBC8E7"/>
<stop offset="0.5466" stop-color="#EFE7F4"/>
<stop offset="0.5556" stop-color="white"/>
<stop offset="0.5678" stop-color="#ECE0F3"/>
<stop offset="0.5801" stop-color="#DDC8EA"/>
<stop offset="0.5915" stop-color="#D4B9E5"/>
<stop offset="0.601" stop-color="#D1B4E3"/>
<stop offset="0.658" stop-color="#B395D6"/>
<stop offset="0.7155" stop-color="#9C7DCB"/>
<stop offset="0.7687" stop-color="#8E6EC5"/>
<stop offset="0.8131" stop-color="#8969C3"/>
<stop offset="1" stop-color="#B086CC"/>
</linearGradient>
<linearGradient id="paint1_linear_4_14151" x1="17.5914" y1="483.321" x2="581.49" y2="483.321" gradientUnits="userSpaceOnUse">
<stop stop-color="#2F054A"/>
<stop offset="1" stop-color="#5824B0"/>
</linearGradient>
<linearGradient id="paint2_linear_4_14151" x1="23.898" y1="483.32" x2="575.183" y2="483.32" gradientUnits="userSpaceOnUse">
<stop stop-color="#3D065F"/>
<stop offset="1" stop-color="#5F27BD"/>
</linearGradient>
<radialGradient id="paint3_radial_4_14151" cx="0" cy="0" r="1" gradientUnits="userSpaceOnUse" gradientTransform="translate(201.572 387.366) rotate(-20.0721) scale(79.3489 49.1038)">
<stop stop-color="#972A74"/>
<stop offset="0.0412825" stop-color="#8A266A"/>
<stop offset="0.1941" stop-color="#601B4A"/>
<stop offset="0.35" stop-color="#3D112F"/>
<stop offset="0.5074" stop-color="#220A1B"/>
<stop offset="0.6667" stop-color="#0F040C"/>
<stop offset="0.8293" stop-color="#040103"/>
<stop offset="1"/>
</radialGradient>
<linearGradient id="paint4_linear_4_14151" x1="297.442" y1="553.523" x2="306.188" y2="354.801" gradientUnits="userSpaceOnUse">
<stop stop-color="#3D065F"/>
<stop offset="1" stop-color="#10054D"/>
</linearGradient>
<linearGradient id="paint5_linear_4_14151" x1="257.085" y1="345.691" x2="413.726" y2="577.132" gradientUnits="userSpaceOnUse">
<stop offset="0.0555556" stop-color="#9F79B8"/>
<stop offset="0.2502" stop-color="#A17BBA"/>
<stop offset="0.3461" stop-color="#A883C0"/>
<stop offset="0.4204" stop-color="#B490CC"/>
<stop offset="0.4836" stop-color="#C5A3DC"/>
<stop offset="0.5392" stop-color="#DBBBF0"/>
<stop offset="0.5606" stop-color="#E6C6FA"/>
<stop offset="0.5967" stop-color="#D6B6F1"/>
<stop offset="0.6872" stop-color="#B595DD"/>
<stop offset="0.7735" stop-color="#9D7DCF"/>
<stop offset="0.8529" stop-color="#8E6EC6"/>
<stop offset="0.9192" stop-color="#8969C3"/>
</linearGradient>
<linearGradient id="paint6_linear_4_14151" x1="47.0219" y1="-84.0247" x2="663.793" y2="420.358" gradientUnits="userSpaceOnUse">
<stop stop-color="#3D065F"/>
<stop offset="1" stop-color="#5F27BD"/>
</linearGradient>
<linearGradient id="paint7_linear_4_14151" x1="554.916" y1="484.625" x2="250.585" y2="40.4298" gradientUnits="userSpaceOnUse">
<stop offset="0.030303" stop-color="#7C1DC9"/>
<stop offset="0.2138" stop-color="#6E41D2"/>
<stop offset="0.6184" stop-color="#4C9BE8"/>
<stop offset="1" stop-color="#353DD0"/>
</linearGradient>
<linearGradient id="paint8_linear_4_14151" x1="664.312" y1="520.635" x2="350.31" y2="48.2619" gradientUnits="userSpaceOnUse">
<stop offset="0.0555556" stop-color="#9F79B8"/>
<stop offset="0.2575" stop-color="#A17BBA"/>
<stop offset="0.3569" stop-color="#A783BF"/>
<stop offset="0.4338" stop-color="#B290C9"/>
<stop offset="0.4949" stop-color="#C1A1D5"/>
<stop offset="0.5067" stop-color="#C4A5D7"/>
<stop offset="0.5196" stop-color="#CDB3DD"/>
<stop offset="0.5329" stop-color="#DBC8E7"/>
<stop offset="0.5466" stop-color="#EFE7F4"/>
<stop offset="0.5556" stop-color="white"/>
<stop offset="0.5678" stop-color="#ECE0F3"/>
<stop offset="0.5801" stop-color="#DDC8EA"/>
<stop offset="0.5915" stop-color="#D4B9E5"/>
<stop offset="0.601" stop-color="#D1B4E3"/>
<stop offset="0.6124" stop-color="#CFB2E2"/>
<stop offset="0.7562" stop-color="#BE9AD6"/>
<stop offset="0.8892" stop-color="#B48BCF"/>
<stop offset="1" stop-color="#B086CC"/>
</linearGradient>
<radialGradient id="paint9_radial_4_14151" cx="0" cy="0" r="1" gradientUnits="userSpaceOnUse" gradientTransform="translate(582.03 219.956) scale(49.008 52.0539)">
<stop stop-color="white"/>
<stop offset="1"/>
</radialGradient>
<linearGradient id="paint10_linear_4_14151" x1="185.239" y1="630.525" x2="464.8" y2="182.138" gradientUnits="userSpaceOnUse">
<stop offset="0.0555556" stop-color="#E6E7E8"/>
<stop offset="0.0768842" stop-color="#ECEDEE"/>
<stop offset="0.1212" stop-color="#F3F4F5"/>
<stop offset="0.2172" stop-color="#E6E7E8"/>
<stop offset="0.5808" stop-color="#FAFAFB"/>
<stop offset="0.6869" stop-color="#D5CEDB"/>
<stop offset="0.8147" stop-color="#DDDAE1"/>
<stop offset="1" stop-color="#E6E7E8"/>
</linearGradient>
<linearGradient id="paint11_linear_4_14151" x1="281.93" y1="681.834" x2="168.048" y2="429.389" gradientUnits="userSpaceOnUse">
<stop stop-color="#25054D"/>
<stop offset="1" stop-color="#45108A"/>
</linearGradient>
<linearGradient id="paint12_linear_4_14151" x1="311" y1="668.711" x2="197.122" y2="416.275" gradientUnits="userSpaceOnUse">
<stop stop-color="#25054D"/>
<stop offset="1" stop-color="#45108A"/>
</linearGradient>
<linearGradient id="paint13_linear_4_14151" x1="339.229" y1="655.977" x2="225.351" y2="403.539" gradientUnits="userSpaceOnUse">
<stop stop-color="#25054D"/>
<stop offset="1" stop-color="#45108A"/>
</linearGradient>
<linearGradient id="paint14_linear_4_14151" x1="278.519" y1="466.641" x2="256.977" y2="504.276" gradientUnits="userSpaceOnUse">
<stop offset="0.0353535" stop-color="#F7D9CF"/>
<stop offset="0.4596" stop-color="#FFE1C2"/>
<stop offset="0.8737" stop-color="#F7CFC1"/>
</linearGradient>
<radialGradient id="paint15_radial_4_14151" cx="0" cy="0" r="1" gradientUnits="userSpaceOnUse" gradientTransform="translate(286.386 496.151) rotate(135.727) scale(77.3104 29.6628)">
<stop/>
<stop offset="1" stop-color="white"/>
</radialGradient>
<radialGradient id="paint16_radial_4_14151" cx="0" cy="0" r="1" gradientUnits="userSpaceOnUse" gradientTransform="translate(289.457 500.793) rotate(135.727) scale(34.4627 13.2228)">
<stop/>
<stop offset="1" stop-color="white"/>
</radialGradient>
<radialGradient id="paint17_radial_4_14151" cx="0" cy="0" r="1" gradientUnits="userSpaceOnUse" gradientTransform="translate(135.568 397.735) rotate(-150.849) scale(52.8314 7.10413)">
<stop stop-color="white"/>
<stop offset="0.1313" stop-color="#FF63CE"/>
<stop offset="1"/>
</radialGradient>
<linearGradient id="paint18_linear_4_14151" x1="196.972" y1="396.13" x2="181.623" y2="423.906" gradientUnits="userSpaceOnUse">
<stop offset="0.0353535" stop-color="#FFA98C"/>
<stop offset="0.3169" stop-color="#FFB892"/>
<stop offset="0.8601" stop-color="#FEE1A3"/>
<stop offset="1" stop-color="#FEECA8"/>
</linearGradient>
<linearGradient id="paint19_linear_4_14151" x1="187.664" y1="413.617" x2="163.991" y2="454.446" gradientUnits="userSpaceOnUse">
<stop offset="0.0353535" stop-color="#FFA98C"/>
<stop offset="0.3169" stop-color="#FFB892"/>
<stop offset="0.8601" stop-color="#FEE1A3"/>
<stop offset="1" stop-color="#FEECA8"/>
</linearGradient>
<linearGradient id="paint20_linear_4_14151" x1="165.213" y1="453.086" x2="187.329" y2="415.325" gradientUnits="userSpaceOnUse">
<stop offset="0.0353535" stop-color="#FFA98C"/>
<stop offset="0.3169" stop-color="#FFB892"/>
<stop offset="0.8601" stop-color="#FEE1A3"/>
<stop offset="1" stop-color="#FEECA8"/>
</linearGradient>
<linearGradient id="paint21_linear_4_14151" x1="102.769" y1="365.505" x2="80.3252" y2="404.715" gradientUnits="userSpaceOnUse">
<stop stop-color="#BEC5D8"/>
<stop offset="0.2121" stop-color="#EBEDF3"/>
<stop offset="0.2401" stop-color="#E2E4EC"/>
<stop offset="0.4982" stop-color="#9097B3"/>
<stop offset="0.6162" stop-color="#70789C"/>
<stop offset="0.6814" stop-color="#767EA3"/>
<stop offset="0.7737" stop-color="#888EB5"/>
<stop offset="0.8232" stop-color="#949AC2"/>
<stop offset="1" stop-color="#8B90B5"/>
</linearGradient>
<linearGradient id="paint22_linear_4_14151" x1="70.2777" y1="329.369" x2="76.3995" y2="414.1" gradientUnits="userSpaceOnUse">
<stop stop-color="#D6DAE6"/>
<stop offset="0.0147448" stop-color="#D4D8E6"/>
<stop offset="0.2778" stop-color="#B4B8E3"/>
<stop offset="0.3952" stop-color="#9A9FC8"/>
<stop offset="0.5296" stop-color="#838AB0"/>
<stop offset="0.6539" stop-color="#757DA1"/>
<stop offset="0.7576" stop-color="#70789C"/>
<stop offset="0.8533" stop-color="#777EA2"/>
<stop offset="0.9888" stop-color="#898EB3"/>
<stop offset="1" stop-color="#8B90B5"/>
</linearGradient>
<radialGradient id="paint23_radial_4_14151" cx="0" cy="0" r="1" gradientUnits="userSpaceOnUse" gradientTransform="translate(85.3592 370.708) rotate(180) scale(16.777 17.8197)">
<stop stop-color="#B4299A"/>
<stop offset="0.1186" stop-color="#8A2076"/>
<stop offset="0.259" stop-color="#601652"/>
<stop offset="0.4024" stop-color="#3E0E35"/>
<stop offset="0.5471" stop-color="#23081E"/>
<stop offset="0.6936" stop-color="#0F030D"/>
<stop offset="0.8431" stop-color="#040103"/>
<stop offset="1"/>
</radialGradient>
<linearGradient id="paint24_linear_4_14151" x1="78.6354" y1="353.688" x2="57.6784" y2="390.3" gradientUnits="userSpaceOnUse">
<stop offset="0.00505051" stop-color="#ED5EB6"/>
<stop offset="0.1298" stop-color="#F783C5"/>
<stop offset="0.2525" stop-color="#FFA3D2"/>
<stop offset="0.6162" stop-color="#DC5199"/>
<stop offset="0.7179" stop-color="#DF589E"/>
<stop offset="0.8131" stop-color="#E463A6"/>
<stop offset="1" stop-color="#DC3D8F"/>
</linearGradient>
<linearGradient id="paint25_linear_4_14151" x1="76.2961" y1="359.553" x2="31.5372" y2="369.872" gradientUnits="userSpaceOnUse">
<stop offset="0.0555556" stop-color="#FFA3D2"/>
<stop offset="0.8131" stop-color="#E463A6"/>
<stop offset="1" stop-color="#DC3D8F"/>
</linearGradient>
<radialGradient id="paint26_radial_4_14151" cx="0" cy="0" r="1" gradientUnits="userSpaceOnUse" gradientTransform="translate(67.3856 363.862) rotate(180) scale(15.8689 16.8552)">
<stop stop-color="#B4299A"/>
<stop offset="0.1186" stop-color="#8A2076"/>
<stop offset="0.259" stop-color="#601652"/>
<stop offset="0.4024" stop-color="#3E0E35"/>
<stop offset="0.5471" stop-color="#23081E"/>
<stop offset="0.6936" stop-color="#0F030D"/>
<stop offset="0.8431" stop-color="#040103"/>
<stop offset="1"/>
</radialGradient>
<radialGradient id="paint27_radial_4_14151" cx="0" cy="0" r="1" gradientUnits="userSpaceOnUse" gradientTransform="translate(286.086 480.911) scale(21.7947 23.1493)">
<stop offset="0.0959596" stop-color="#8493BA"/>
<stop offset="0.2117" stop-color="#606C90"/>
<stop offset="0.3258" stop-color="#444D6E"/>
<stop offset="0.4337" stop-color="#303756"/>
<stop offset="0.5332" stop-color="#232A47"/>
<stop offset="0.6162" stop-color="#1F2542"/>
<stop offset="0.7061" stop-color="#242A49"/>
<stop offset="0.8335" stop-color="#34395B"/>
<stop offset="0.9827" stop-color="#4D5179"/>
<stop offset="0.9848" stop-color="#4D517A"/>
</radialGradient>
<linearGradient id="paint28_linear_4_14151" x1="417.91" y1="682.28" x2="411.514" y2="100.538" gradientUnits="userSpaceOnUse">
<stop stop-color="#9F79C8"/>
<stop offset="0.1367" stop-color="#A580CB"/>
<stop offset="0.3288" stop-color="#B492D3"/>
<stop offset="0.5529" stop-color="#CDB0E1"/>
<stop offset="0.5808" stop-color="#D1B4E3"/>
<stop offset="0.7644" stop-color="#DBC4E9"/>
<stop offset="1" stop-color="#EBDEF3"/>
</linearGradient>
<linearGradient id="paint29_linear_4_14151" x1="614.433" y1="480.194" x2="360.76" y2="98.5769" gradientUnits="userSpaceOnUse">
<stop offset="0.0555556" stop-color="#9F79B8"/>
<stop offset="0.2575" stop-color="#A17BBA"/>
<stop offset="0.3569" stop-color="#A783BF"/>
<stop offset="0.4338" stop-color="#B290C9"/>
<stop offset="0.4949" stop-color="#C1A1D5"/>
<stop offset="0.5067" stop-color="#C4A5D7"/>
<stop offset="0.5196" stop-color="#CDB3DD"/>
<stop offset="0.5329" stop-color="#DBC8E7"/>
<stop offset="0.5466" stop-color="#EFE7F4"/>
<stop offset="0.5556" stop-color="white"/>
<stop offset="0.5678" stop-color="#ECE0F3"/>
<stop offset="0.5801" stop-color="#DDC8EA"/>
<stop offset="0.5915" stop-color="#D4B9E5"/>
<stop offset="0.601" stop-color="#D1B4E3"/>
<stop offset="0.6124" stop-color="#CFB2E2"/>
<stop offset="0.7562" stop-color="#BE9AD6"/>
<stop offset="0.8892" stop-color="#B48BCF"/>
<stop offset="1" stop-color="#B086CC"/>
</linearGradient>
<linearGradient id="paint30_linear_4_14151" x1="403.96" y1="183.802" x2="428.425" y2="145.093" gradientUnits="userSpaceOnUse">
<stop offset="0.0959596" stop-color="#45108A"/>
<stop offset="1" stop-color="#7C1DC9"/>
</linearGradient>
<linearGradient id="paint31_linear_4_14151" x1="344.4" y1="250.971" x2="488.636" y2="87.5556" gradientUnits="userSpaceOnUse">
<stop offset="0.0959596" stop-color="#45108A"/>
<stop offset="1" stop-color="#7C1DC9"/>
</linearGradient>
<linearGradient id="paint32_linear_4_14151" x1="508.06" y1="356.222" x2="683.197" y2="363.637" gradientUnits="userSpaceOnUse">
<stop stop-color="#9F79C8"/>
<stop offset="0.1367" stop-color="#A580CB"/>
<stop offset="0.3288" stop-color="#B492D3"/>
<stop offset="0.5529" stop-color="#CDB0E1"/>
<stop offset="0.5808" stop-color="#D1B4E3"/>
<stop offset="0.7644" stop-color="#DBC4E9"/>
<stop offset="1" stop-color="#EBDEF3"/>
</linearGradient>
<linearGradient id="paint33_linear_4_14151" x1="573.328" y1="412.509" x2="539.009" y2="409.277" gradientUnits="userSpaceOnUse">
<stop stop-color="#9F79C8"/>
<stop offset="0.1367" stop-color="#A580CB"/>
<stop offset="0.3288" stop-color="#B492D3"/>
<stop offset="0.5529" stop-color="#CDB0E1"/>
<stop offset="0.5808" stop-color="#D1B4E3"/>
<stop offset="0.7644" stop-color="#DBC4E9"/>
<stop offset="1" stop-color="#EBDEF3"/>
</linearGradient>
<linearGradient id="paint34_linear_4_14151" x1="325.341" y1="110.425" x2="331.791" y2="100.045" gradientUnits="userSpaceOnUse">
<stop offset="0.0353535" stop-color="#9F19AB"/>
<stop offset="0.2438" stop-color="#AE25B1"/>
<stop offset="0.6455" stop-color="#D744BF"/>
<stop offset="1" stop-color="#FF63CE"/>
</linearGradient>
<linearGradient id="paint35_linear_4_14151" x1="308.732" y1="100.592" x2="315.183" y2="90.2117" gradientUnits="userSpaceOnUse">
<stop offset="0.0353535" stop-color="#FFA98C"/>
<stop offset="0.3169" stop-color="#FFB892"/>
<stop offset="0.8601" stop-color="#FEE1A3"/>
<stop offset="1" stop-color="#FEECA8"/>
</linearGradient>
<linearGradient id="paint36_linear_4_14151" x1="291.988" y1="90.5186" x2="298.438" y2="80.1387" gradientUnits="userSpaceOnUse">
<stop stop-color="#9F79C8"/>
<stop offset="0.1367" stop-color="#A580CB"/>
<stop offset="0.3288" stop-color="#B492D3"/>
<stop offset="0.5529" stop-color="#CDB0E1"/>
<stop offset="0.5808" stop-color="#D1B4E3"/>
<stop offset="0.7644" stop-color="#DBC4E9"/>
<stop offset="1" stop-color="#EBDEF3"/>
</linearGradient>
<linearGradient id="paint37_linear_4_14151" x1="304.404" y1="185.948" x2="461.091" y2="185.948" gradientUnits="userSpaceOnUse">
<stop offset="0.010101" stop-color="#9F19AB"/>
<stop offset="0.4293" stop-color="#5F27BD"/>
<stop offset="0.904" stop-color="#3D065F"/>
</linearGradient>
<linearGradient id="paint38_linear_4_14151" x1="304.404" y1="284.894" x2="472.167" y2="284.894" gradientUnits="userSpaceOnUse">
<stop offset="0.010101" stop-color="#9F19AB"/>
<stop offset="0.4293" stop-color="#5F27BD"/>
<stop offset="0.904" stop-color="#3D065F"/>
</linearGradient>
</defs>
</svg>
